<svg xmlns="http://www.w3.org/2000/svg" version="1.1" xmlns:xlink="http://www.w3.org/1999/xlink" xmlns:svgjs="http://svgjs.dev/svgjs" width="1000" height="2470" viewBox="0 0 1000 2470"><g transform="matrix(1,0,0,1,0.6168100595630222,1)"><svg viewBox="0 0 100 247" data-background-color="#ffffff" preserveAspectRatio="xMidYMid meet" height="2470" width="1000" xmlns="http://www.w3.org/2000/svg" xmlns:xlink="http://www.w3.org/1999/xlink"><g id="tight-bounds" transform="matrix(1,0,0,1,-0.061681005956302215,-0.09999999999999432)"><svg viewBox="0 0 100.12336201191263 247.2" height="247.2" width="100.12336201191263"><g><svg viewBox="0 0 100.12336201191263 247.2" height="247.2" width="100.12336201191263"><g><svg viewBox="0 0 100.12336201191263 247.2" height="247.2" width="100.12336201191263"><g id="textblocktransform"><svg viewBox="0 0 100.12336201191263 247.2" height="247.2" width="100.12336201191263" id="textblock"><g><svg viewBox="0 0 100.12336201191263 247.2" height="247.2" width="100.12336201191263"><g transform="matrix(1,0,0,1,0,0)"><svg width="100.12336201191263" viewBox="0.17 -36.45 14.94 36.89" height="247.2" data-palette-color="url(#58267d37-af5b-4a62-af1a-aca8de66cfbe)"><g class="wordmark-text-0" data-fill-palette-color="primary" id="text-0"></g></svg></g></svg></g></svg></g></svg></g></svg></g><defs></defs><mask id="209cf7e5-d5b6-4378-a5e8-71068a28a7ec"><g id="SvgjsG1250"><svg viewBox="0 0 100.12336201191263 247.2" height="247.2" width="100.12336201191263"><g><svg viewBox="0 0 100.12336201191263 247.2" height="247.2" width="100.12336201191263"><g><svg viewBox="0 0 100.12336201191263 247.2" height="247.2" width="100.12336201191263"><g id="SvgjsG1249"><svg viewBox="0 0 100.12336201191263 247.2" height="247.2" width="100.12336201191263" id="SvgjsSvg1248"><g><svg viewBox="0 0 100.12336201191263 247.2" height="247.2" width="100.12336201191263"><g transform="matrix(1,0,0,1,0,0)"><svg width="100.12336201191263" viewBox="0.17 -36.45 14.94 36.89" height="247.2" data-palette-color="url(#58267d37-af5b-4a62-af1a-aca8de66cfbe)"><g class="wordmark-text-0" data-fill-palette-color="primary" id="SvgjsG1247"><path d="M13.33-21.97L13.33-21.97 13.33-12.3Q13.33-8.67 15.09-7.57L15.09-7.57Q15.11-7.45 15.11-7.1L15.11-7.1 15.11-6.67Q15.11-3.08 13.16-1.27L13.16-1.27Q11.35 0.44 8.34 0.44 5.32 0.44 3.37-1.27L3.37-1.27Q0.9-3.44 0.9-7.62L0.9-7.62 0.9-23.49Q1.34-23.8 1.86-24 2.37-24.19 2.93-24.49L2.93-24.49Q1.88-25.02 1.03-26.35 0.17-27.69 0.17-29.47L0.17-29.47Q0.17-32.54 2.2-34.5 4.22-36.45 7.17-36.45 10.11-36.45 12.1-34.46 14.09-32.47 14.09-29.47L14.09-29.47Q14.09-27.05 12.57-25.23 11.06-23.41 8.89-22.95L8.89-22.95Q8.89-22.02 9.59-22.02L9.59-22.02Q10.84-22.02 12.13-23L12.13-23Q13.11-22.24 13.33-21.97Z" fill="white"></path></g></svg></g></svg></g></svg></g></svg></g></svg></g><defs><mask></mask></defs></svg></g></mask><linearGradient x1="0" x2="1" y1="0.578" y2="0.595" id="58267d37-af5b-4a62-af1a-aca8de66cfbe"><stop stop-color="#6ee2f5" offset="0"></stop><stop stop-color="#6454f0" offset="1"></stop></linearGradient><rect width="100.12336201191263" height="247.2" fill="#ffffff" mask="url(#209cf7e5-d5b6-4378-a5e8-71068a28a7ec)" data-fill-palette-color="primary"></rect></svg><rect width="100.12336201191263" height="247.2" fill="none" stroke="none" visibility="hidden"></rect></g></svg></g></svg>