<svg xmlns="http://www.w3.org/2000/svg" version="1.1" xmlns:xlink="http://www.w3.org/1999/xlink" xmlns:svgjs="http://svgjs.dev/svgjs" width="1000" height="625" viewBox="0 0 1000 625"><g transform="matrix(1,0,0,1,0,0)"><svg viewBox="0 0 512 320" data-background-color="#ffffff" preserveAspectRatio="xMidYMid meet" height="625" width="1000" xmlns="http://www.w3.org/2000/svg" xmlns:xlink="http://www.w3.org/1999/xlink"><g id="tight-bounds" transform="matrix(1,0,0,1,0,0)"><svg viewBox="0 0 512 320" height="320" width="512"><rect width="512" height="320" fill="#ffffff" mask="url(#3e756739-ffb8-4412-a01c-5228e5c8d682)" data-fill-palette-color="tertiary"></rect><g><svg></svg></g><g><svg viewBox="0 0 512 320" height="320" width="512"><g><path d="M96 160c0-88.366 71.634-160 160-160 88.366 0 160 71.634 160 160 0 88.366-71.634 160-160 160-88.366 0-160-71.634-160-160zM256 291.142c72.428 0 131.142-58.714 131.142-131.142 0-72.428-58.714-131.142-131.142-131.142-72.428 0-131.142 58.714-131.142 131.142 0 72.428 58.714 131.142 131.142 131.142z" fill="#ffffff" fill-rule="nonzero" stroke="none" stroke-width="1" stroke-linecap="butt" stroke-linejoin="miter" stroke-miterlimit="10" stroke-dasharray="" stroke-dashoffset="0" font-family="none" font-weight="none" font-size="none" text-anchor="none" style="mix-blend-mode: normal" data-fill-palette-color="tertiary"></path></g><g transform="matrix(1,0,0,1,223.59761747187292,80)"><svg viewBox="0 0 64.80476505625414 160" height="160" width="64.80476505625414"><g><svg viewBox="0 0 64.80476505625414 160" height="160" width="64.80476505625414"><g><svg viewBox="0 0 64.80476505625414 160" height="160" width="64.80476505625414"><g id="textblocktransform"><svg viewBox="0 0 64.80476505625414 160" height="160" width="64.80476505625414" id="textblock"><g><svg viewBox="0 0 64.80476505625414 160" height="160" width="64.80476505625414"><g transform="matrix(1,0,0,1,0,0)"><svg width="64.80476505625414" viewBox="0.17 -36.45 14.94 36.89" height="160" data-palette-color="url(#f3ad62ec-835a-4a7a-8591-d991f2882750)"><g class="wordmark-text-0" data-fill-palette-color="primary" id="text-0"></g></svg></g></svg></g></svg></g></svg></g></svg></g></svg></g></svg></g><defs></defs><mask id="acb9c24c-1a92-46ed-85aa-e3b506c0b55e"><g id="SvgjsG1003"><svg viewBox="0 0 512 320" height="320" width="512"><g><svg></svg></g><g><svg viewBox="0 0 512 320" height="320" width="512"><g></g><g transform="matrix(1,0,0,1,223.59761747187292,80)"><svg viewBox="0 0 64.80476505625414 160" height="160" width="64.80476505625414"><g><svg viewBox="0 0 64.80476505625414 160" height="160" width="64.80476505625414"><g><svg viewBox="0 0 64.80476505625414 160" height="160" width="64.80476505625414"><g id="SvgjsG1002"><svg viewBox="0 0 64.80476505625414 160" height="160" width="64.80476505625414" id="SvgjsSvg1001"><g><svg viewBox="0 0 64.80476505625414 160" height="160" width="64.80476505625414"><g transform="matrix(1,0,0,1,0,0)"><svg width="64.80476505625414" viewBox="0.17 -36.45 14.94 36.89" height="160" data-palette-color="url(#f3ad62ec-835a-4a7a-8591-d991f2882750)"><g class="wordmark-text-0" data-fill-palette-color="primary" id="SvgjsG1000"><path d="M13.33-21.97L13.33-21.97 13.33-12.3Q13.33-8.67 15.09-7.57L15.09-7.57Q15.11-7.45 15.11-7.1L15.11-7.1 15.11-6.67Q15.11-3.08 13.16-1.27L13.16-1.27Q11.35 0.44 8.34 0.44 5.32 0.44 3.37-1.27L3.37-1.27Q0.9-3.44 0.9-7.62L0.9-7.62 0.9-23.49Q1.34-23.8 1.86-24 2.37-24.19 2.93-24.49L2.93-24.49Q1.88-25.02 1.03-26.35 0.17-27.69 0.17-29.47L0.17-29.47Q0.17-32.54 2.2-34.5 4.22-36.45 7.17-36.45 10.11-36.45 12.1-34.46 14.09-32.47 14.09-29.47L14.09-29.47Q14.09-27.05 12.57-25.23 11.06-23.41 8.89-22.95L8.89-22.95Q8.89-22.02 9.59-22.02L9.59-22.02Q10.84-22.02 12.13-23L12.13-23Q13.11-22.24 13.33-21.97Z" fill="white"></path></g></svg></g></svg></g></svg></g></svg></g></svg></g></svg></g></svg></g><defs><mask></mask></defs></svg></g></mask><linearGradient x1="0" x2="1" y1="0.578" y2="0.595" id="f3ad62ec-835a-4a7a-8591-d991f2882750"><stop stop-color="#6ee2f5" offset="0"></stop><stop stop-color="#6454f0" offset="1"></stop></linearGradient><rect width="512" height="320" fill="#ffffff" mask="url(#acb9c24c-1a92-46ed-85aa-e3b506c0b55e)" data-fill-palette-color="primary"></rect><mask id="3e756739-ffb8-4412-a01c-5228e5c8d682"><g id="SvgjsG1020"><svg viewBox="0 0 512 320" height="320" width="512"><g><svg></svg></g><g><svg viewBox="0 0 512 320" height="320" width="512"><g><path d="M96 160c0-88.366 71.634-160 160-160 88.366 0 160 71.634 160 160 0 88.366-71.634 160-160 160-88.366 0-160-71.634-160-160zM256 291.142c72.428 0 131.142-58.714 131.142-131.142 0-72.428-58.714-131.142-131.142-131.142-72.428 0-131.142 58.714-131.142 131.142 0 72.428 58.714 131.142 131.142 131.142z" fill="white" fill-rule="nonzero" stroke="none" stroke-width="1" stroke-linecap="butt" stroke-linejoin="miter" stroke-miterlimit="10" stroke-dasharray="" stroke-dashoffset="0" font-family="none" font-weight="none" font-size="none" text-anchor="none" style="mix-blend-mode: normal"></path></g><g transform="matrix(1,0,0,1,223.59761747187292,80)"><svg viewBox="0 0 64.80476505625414 160" height="160" width="64.80476505625414"><g><svg viewBox="0 0 64.80476505625414 160" height="160" width="64.80476505625414"><g><svg viewBox="0 0 64.80476505625414 160" height="160" width="64.80476505625414"><g id="SvgjsG1019"><svg viewBox="0 0 64.80476505625414 160" height="160" width="64.80476505625414" id="SvgjsSvg1018"><g><svg viewBox="0 0 64.80476505625414 160" height="160" width="64.80476505625414"><g transform="matrix(1,0,0,1,0,0)"><svg width="64.80476505625414" viewBox="0.17 -36.45 14.94 36.89" height="160" data-palette-color="url(#f3ad62ec-835a-4a7a-8591-d991f2882750)"><g class="wordmark-text-0" data-fill-palette-color="primary" id="SvgjsG1017"></g></svg></g></svg></g></svg></g></svg></g></svg></g></svg></g></svg></g><defs><mask></mask></defs><mask><g id="SvgjsG1016"><svg viewBox="0 0 512 320" height="320" width="512"><g><svg></svg></g><g><svg viewBox="0 0 512 320" height="320" width="512"><g></g><g transform="matrix(1,0,0,1,223.59761747187292,80)"><svg viewBox="0 0 64.80476505625414 160" height="160" width="64.80476505625414"><g><svg viewBox="0 0 64.80476505625414 160" height="160" width="64.80476505625414"><g><svg viewBox="0 0 64.80476505625414 160" height="160" width="64.80476505625414"><g id="SvgjsG1015"><svg viewBox="0 0 64.80476505625414 160" height="160" width="64.80476505625414" id="SvgjsSvg1014"><g><svg viewBox="0 0 64.80476505625414 160" height="160" width="64.80476505625414"><g transform="matrix(1,0,0,1,0,0)"><svg width="64.80476505625414" viewBox="0.17 -36.45 14.94 36.89" height="160" data-palette-color="url(#f3ad62ec-835a-4a7a-8591-d991f2882750)"><g class="wordmark-text-0" data-fill-palette-color="primary" id="SvgjsG1013"></g></svg></g></svg></g></svg></g></svg></g></svg></g></svg></g></svg></g><defs><mask></mask></defs></svg></g></mask></svg></g></mask><linearGradient x1="0" x2="1" y1="0.578" y2="0.595" id="b9bc4614-2971-49d9-bee8-04a53dca300e"><stop stop-color="#6ee2f5" offset="0"></stop><stop stop-color="#6454f0" offset="1"></stop></linearGradient></svg><rect width="512" height="320" fill="none" stroke="none" visibility="hidden"></rect></g></svg></g></svg>